<svg id="visual" viewBox="0 0 960 540" width="960" height="540" xmlns="http://www.w3.org/2000/svg" xmlns:xlink="http://www.w3.org/1999/xlink" version="1.1"><rect x="0" y="0" width="960" height="540" fill="#ffffff"></rect><defs><linearGradient id="grad1_0" x1="43.8%" y1="0%" x2="100%" y2="100%"><stop offset="14.444444444444446%" stop-color="#59ad67" stop-opacity="1"></stop><stop offset="85.55555555555554%" stop-color="#59ad67" stop-opacity="1"></stop></linearGradient></defs><defs><linearGradient id="grad1_1" x1="43.8%" y1="0%" x2="100%" y2="100%"><stop offset="14.444444444444446%" stop-color="#59ad67" stop-opacity="1"></stop><stop offset="85.55555555555554%" stop-color="#7cbe84" stop-opacity="1"></stop></linearGradient></defs><defs><linearGradient id="grad1_2" x1="43.8%" y1="0%" x2="100%" y2="100%"><stop offset="14.444444444444446%" stop-color="#9ecea2" stop-opacity="1"></stop><stop offset="85.55555555555554%" stop-color="#7cbe84" stop-opacity="1"></stop></linearGradient></defs><defs><linearGradient id="grad1_3" x1="43.8%" y1="0%" x2="100%" y2="100%"><stop offset="14.444444444444446%" stop-color="#9ecea2" stop-opacity="1"></stop><stop offset="85.55555555555554%" stop-color="#bedfc0" stop-opacity="1"></stop></linearGradient></defs><defs><linearGradient id="grad1_4" x1="43.8%" y1="0%" x2="100%" y2="100%"><stop offset="14.444444444444446%" stop-color="#dfefdf" stop-opacity="1"></stop><stop offset="85.55555555555554%" stop-color="#bedfc0" stop-opacity="1"></stop></linearGradient></defs><defs><linearGradient id="grad1_5" x1="43.8%" y1="0%" x2="100%" y2="100%"><stop offset="14.444444444444446%" stop-color="#dfefdf" stop-opacity="1"></stop><stop offset="85.55555555555554%" stop-color="#ffffff" stop-opacity="1"></stop></linearGradient></defs><defs><linearGradient id="grad2_0" x1="0%" y1="0%" x2="56.3%" y2="100%"><stop offset="14.444444444444446%" stop-color="#59ad67" stop-opacity="1"></stop><stop offset="85.55555555555554%" stop-color="#59ad67" stop-opacity="1"></stop></linearGradient></defs><defs><linearGradient id="grad2_1" x1="0%" y1="0%" x2="56.3%" y2="100%"><stop offset="14.444444444444446%" stop-color="#7cbe84" stop-opacity="1"></stop><stop offset="85.55555555555554%" stop-color="#59ad67" stop-opacity="1"></stop></linearGradient></defs><defs><linearGradient id="grad2_2" x1="0%" y1="0%" x2="56.3%" y2="100%"><stop offset="14.444444444444446%" stop-color="#7cbe84" stop-opacity="1"></stop><stop offset="85.55555555555554%" stop-color="#9ecea2" stop-opacity="1"></stop></linearGradient></defs><defs><linearGradient id="grad2_3" x1="0%" y1="0%" x2="56.3%" y2="100%"><stop offset="14.444444444444446%" stop-color="#bedfc0" stop-opacity="1"></stop><stop offset="85.55555555555554%" stop-color="#9ecea2" stop-opacity="1"></stop></linearGradient></defs><defs><linearGradient id="grad2_4" x1="0%" y1="0%" x2="56.3%" y2="100%"><stop offset="14.444444444444446%" stop-color="#bedfc0" stop-opacity="1"></stop><stop offset="85.55555555555554%" stop-color="#dfefdf" stop-opacity="1"></stop></linearGradient></defs><defs><linearGradient id="grad2_5" x1="0%" y1="0%" x2="56.3%" y2="100%"><stop offset="14.444444444444446%" stop-color="#ffffff" stop-opacity="1"></stop><stop offset="85.55555555555554%" stop-color="#dfefdf" stop-opacity="1"></stop></linearGradient></defs><g transform="translate(960, 0)"><path d="M0 513C-21.4 504.2 -42.8 495.4 -64.7 491.8C-86.7 488.1 -109.2 489.6 -129.7 483.9C-150.1 478.3 -168.4 465.6 -190.6 460.1C-212.8 454.6 -238.8 456.4 -256.5 444.3C-274.2 432.2 -283.5 406.2 -298.9 389.5C-314.3 372.9 -335.6 365.6 -352.1 352.1C-368.6 338.6 -380.3 318.9 -390.3 299.5C-400.4 280.1 -408.9 261.1 -422.6 244C-436.3 226.9 -455.2 211.6 -463.8 192.1C-472.4 172.6 -470.7 149 -476.2 127.6C-481.7 106.2 -494.3 86.9 -501.7 66C-509 45.1 -511 22.6 -513 0L0 0Z" fill="#eff7ef"></path><path d="M0 427.5C-17.8 420.2 -35.6 412.8 -54 409.8C-72.3 406.7 -91 408 -108.1 403.3C-125.1 398.6 -140.3 388 -158.8 383.4C-177.3 378.8 -199 380.3 -213.7 370.2C-228.5 360.1 -236.3 338.5 -249.1 324.6C-261.9 310.8 -279.7 304.7 -293.4 293.4C-307.2 282.2 -316.9 265.7 -325.3 249.6C-333.7 233.4 -340.8 217.6 -352.2 203.3C-363.6 189 -379.3 176.3 -386.5 160.1C-393.7 143.9 -392.3 124.2 -396.8 106.3C-401.4 88.5 -412 72.5 -418.1 55C-424.2 37.6 -425.8 18.8 -427.5 0L0 0Z" fill="#cee7d0"></path><path d="M0 342C-14.3 336.1 -28.5 330.3 -43.2 327.8C-57.8 325.4 -72.8 326.4 -86.4 322.6C-100.1 318.9 -112.3 310.4 -127.1 306.7C-141.8 303.1 -159.2 304.3 -171 296.2C-182.8 288.1 -189 270.8 -199.3 259.7C-209.5 248.6 -223.8 243.8 -234.8 234.8C-245.8 225.8 -253.5 212.6 -260.2 199.7C-266.9 186.8 -272.6 174.1 -281.7 162.7C-290.9 151.2 -303.5 141 -309.2 128.1C-314.9 115.1 -313.8 99.3 -317.5 85.1C-321.1 70.8 -329.6 58 -334.4 44C-339.3 30.1 -340.7 15 -342 0L0 0Z" fill="#aed6b1"></path><path d="M0 256.5C-10.7 252.1 -21.4 247.7 -32.4 245.9C-43.4 244 -54.6 244.8 -64.8 242C-75 239.1 -84.2 232.8 -95.3 230C-106.4 227.3 -119.4 228.2 -128.2 222.1C-137.1 216.1 -141.8 203.1 -149.5 194.8C-157.1 186.5 -167.8 182.8 -176.1 176.1C-184.3 169.3 -190.1 159.4 -195.2 149.8C-200.2 140.1 -204.5 130.6 -211.3 122C-218.2 113.4 -227.6 105.8 -231.9 96.1C-236.2 86.3 -235.4 74.5 -238.1 63.8C-240.8 53.1 -247.2 43.5 -250.8 33C-254.5 22.6 -255.5 11.3 -256.5 0L0 0Z" fill="#8dc693"></path><path d="M0 171C-7.1 168.1 -14.3 165.1 -21.6 163.9C-28.9 162.7 -36.4 163.2 -43.2 161.3C-50 159.4 -56.1 155.2 -63.5 153.4C-70.9 151.5 -79.6 152.1 -85.5 148.1C-91.4 144.1 -94.5 135.4 -99.6 129.8C-104.8 124.3 -111.9 121.9 -117.4 117.4C-122.9 112.9 -126.8 106.3 -130.1 99.8C-133.5 93.4 -136.3 87 -140.9 81.3C-145.4 75.6 -151.7 70.5 -154.6 64C-157.5 57.5 -156.9 49.7 -158.7 42.5C-160.6 35.4 -164.8 29 -167.2 22C-169.7 15 -170.3 7.5 -171 0L0 0Z" fill="#6bb576"></path><path d="M0 85.5C-3.6 84 -7.1 82.6 -10.8 82C-14.5 81.3 -18.2 81.6 -21.6 80.7C-25 79.7 -28.1 77.6 -31.8 76.7C-35.5 75.8 -39.8 76.1 -42.7 74C-45.7 72 -47.3 67.7 -49.8 64.9C-52.4 62.2 -55.9 60.9 -58.7 58.7C-61.4 56.4 -63.4 53.1 -65.1 49.9C-66.7 46.7 -68.2 43.5 -70.4 40.7C-72.7 37.8 -75.9 35.3 -77.3 32C-78.7 28.8 -78.5 24.8 -79.4 21.3C-80.3 17.7 -82.4 14.5 -83.6 11C-84.8 7.5 -85.2 3.8 -85.5 0L0 0Z" fill="#59ad67"></path></g><g transform="translate(0, 540)"><path d="M0 -513C22.2 -509.3 44.5 -505.6 65.8 -499.7C87.1 -493.7 107.6 -485.5 128.4 -479.1C149.2 -472.7 170.4 -468.1 191.3 -461.9C212.3 -455.8 233 -448 253 -438.2C273 -428.4 292.5 -416.7 307.4 -400.6C322.4 -384.6 332.8 -364.2 350 -350C367.2 -335.8 391.1 -327.7 407 -312.3C422.9 -296.9 430.9 -274 435.6 -251.5C440.3 -229 441.7 -206.7 451.8 -187.1C461.9 -167.5 480.7 -150.5 485.9 -130.2C491 -109.8 482.6 -86.1 484.8 -63.8C487.1 -41.6 500 -20.8 513 0L0 0Z" fill="#eff7ef"></path><path d="M0 -427.5C18.5 -424.4 37 -421.4 54.8 -416.4C72.6 -411.4 89.6 -404.6 107 -399.2C124.3 -393.9 142 -390.1 159.5 -384.9C176.9 -379.8 194.1 -373.3 210.8 -365.2C227.5 -357 243.7 -347.2 256.2 -333.9C268.6 -320.5 277.4 -303.5 291.7 -291.7C306 -279.8 325.9 -273.1 339.2 -260.2C352.4 -247.4 359.1 -228.4 363 -209.6C366.9 -190.8 368.1 -172.3 376.5 -155.9C384.9 -139.6 400.6 -125.5 404.9 -108.5C409.2 -91.5 402.1 -71.7 404 -53.2C405.9 -34.6 416.7 -17.3 427.5 0L0 0Z" fill="#cee7d0"></path><path d="M0 -342C14.8 -339.5 29.6 -337.1 43.9 -333.1C58.1 -329.2 71.7 -323.7 85.6 -319.4C99.5 -315.1 113.6 -312.1 127.6 -308C141.5 -303.8 155.3 -298.6 168.7 -292.1C182 -285.6 195 -277.8 204.9 -267.1C214.9 -256.4 221.9 -242.8 233.3 -233.3C244.8 -223.9 260.7 -218.5 271.3 -208.2C281.9 -197.9 287.3 -182.7 290.4 -167.7C293.5 -152.6 294.5 -137.8 301.2 -124.8C307.9 -111.7 320.5 -100.4 323.9 -86.8C327.4 -73.2 321.7 -57.4 323.2 -42.6C324.7 -27.7 333.4 -13.9 342 0L0 0Z" fill="#aed6b1"></path><path d="M0 -256.5C11.1 -254.7 22.2 -252.8 32.9 -249.8C43.6 -246.9 53.8 -242.8 64.2 -239.5C74.6 -236.3 85.2 -234.1 95.7 -231C106.1 -227.9 116.5 -224 126.5 -219.1C136.5 -214.2 146.2 -208.3 153.7 -200.3C161.2 -192.3 166.4 -182.1 175 -175C183.6 -167.9 195.5 -163.9 203.5 -156.1C211.5 -148.4 215.5 -137 217.8 -125.8C220.1 -114.5 220.8 -103.4 225.9 -93.6C230.9 -83.8 240.3 -75.3 242.9 -65.1C245.5 -54.9 241.3 -43 242.4 -31.9C243.5 -20.8 250 -10.4 256.5 0L0 0Z" fill="#8dc693"></path><path d="M0 -171C7.4 -169.8 14.8 -168.5 21.9 -166.6C29 -164.6 35.9 -161.8 42.8 -159.7C49.7 -157.6 56.8 -156 63.8 -154C70.8 -151.9 77.7 -149.3 84.3 -146.1C91 -142.8 97.5 -138.9 102.5 -133.5C107.5 -128.2 110.9 -121.4 116.7 -116.7C122.4 -111.9 130.4 -109.2 135.7 -104.1C141 -99 143.6 -91.3 145.2 -83.8C146.8 -76.3 147.2 -68.9 150.6 -62.4C154 -55.8 160.2 -50.2 162 -43.4C163.7 -36.6 160.9 -28.7 161.6 -21.3C162.4 -13.9 166.7 -6.9 171 0L0 0Z" fill="#6bb576"></path><path d="M0 -85.5C3.7 -84.9 7.4 -84.3 11 -83.3C14.5 -82.3 17.9 -80.9 21.4 -79.8C24.9 -78.8 28.4 -78 31.9 -77C35.4 -76 38.8 -74.7 42.2 -73C45.5 -71.4 48.7 -69.4 51.2 -66.8C53.7 -64.1 55.5 -60.7 58.3 -58.3C61.2 -56 65.2 -54.6 67.8 -52C70.5 -49.5 71.8 -45.7 72.6 -41.9C73.4 -38.2 73.6 -34.5 75.3 -31.2C77 -27.9 80.1 -25.1 81 -21.7C81.8 -18.3 80.4 -14.3 80.8 -10.6C81.2 -6.9 83.3 -3.5 85.5 0L0 0Z" fill="#59ad67"></path></g></svg>